<svg width="579" height="71" viewBox="0 0 579 71" fill="none" xmlns="http://www.w3.org/2000/svg">
<path d="M22.1 1.2H23.8L31.7 28.6L20.2 70H0.2L22.1 1.2ZM44.6 57.8H27.9L32.1 42.4H40.1L28.3 1.2H46.6L68.5 70H48.1L44.6 57.8ZM65.0602 1.2H121.36V17.2H65.0602V1.2ZM83.1602 21.2H103.16V70H83.1602V21.2ZM128.766 1.2H148.766V70H128.766V1.2ZM175.273 67.1C174.407 64.4333 173.64 61.8333 172.973 59.3L169.773 48.3C168.707 44.7 167.873 42 167.273 40.2C166.74 38.2 166.307 36.7 165.973 35.7L155.773 1.2H176.173L194.873 70H176.173L175.273 67.1ZM190.973 39.5L201.073 1.2H221.073L210.873 35.7L207.173 48.3C205.973 52.1667 204.873 55.8333 203.873 59.3C203.207 61.8333 202.44 64.4333 201.573 67.1L200.673 70H199.273L190.973 39.5ZM228.082 1.2H248.082V70H228.082V1.2ZM261.09 1.2H281.09V70H261.09V1.2ZM285.29 54.7H286.09C289.357 54.7 291.657 54.5667 292.99 54.3C294.39 53.9667 295.423 53.2333 296.09 52.1C296.823 50.9 297.223 49 297.29 46.4C297.423 43.0667 297.49 39.4667 297.49 35.6C297.49 31.8 297.423 28.1667 297.29 24.7C297.157 22.1 296.723 20.2 295.99 19C295.323 17.8 294.223 17.0667 292.69 16.8C291.157 16.6 288.957 16.5 286.09 16.5H285.29V1.2H286.09C291.423 1.2 295.857 1.43333 299.39 1.89999C302.99 2.36666 305.957 3.1 308.29 4.1C310.557 5.1 312.357 6.46666 313.69 8.2C315.023 9.93333 315.99 12.1 316.59 14.7C317.123 17.0333 317.457 19.8 317.59 23C317.79 26.1333 317.89 30.3333 317.89 35.6C317.89 40.9333 317.79 45.1667 317.59 48.3C317.457 51.4333 317.123 54.1667 316.59 56.5C315.99 59.1 315.023 61.2667 313.69 63C312.357 64.7333 310.557 66.1 308.29 67.1C305.957 68.1 302.99 68.8333 299.39 69.3C295.857 69.7667 291.423 70 286.09 70H285.29V54.7ZM344.659 1.2H346.359L354.259 28.6L342.759 70H322.759L344.659 1.2ZM367.159 57.8H350.459L354.659 42.4H362.659L350.859 1.2H369.159L391.059 70H370.659L367.159 57.8ZM397.711 1.2H417.711V70H397.711V1.2ZM421.911 54.7H422.711C425.978 54.7 428.278 54.5667 429.611 54.3C431.011 53.9667 432.044 53.2333 432.711 52.1C433.444 50.9 433.844 49 433.911 46.4C434.044 43.0667 434.111 39.4667 434.111 35.6C434.111 31.8 434.044 28.1667 433.911 24.7C433.778 22.1 433.344 20.2 432.611 19C431.944 17.8 430.844 17.0667 429.311 16.8C427.778 16.6 425.578 16.5 422.711 16.5H421.911V1.2H422.711C428.044 1.2 432.478 1.43333 436.011 1.89999C439.611 2.36666 442.578 3.1 444.911 4.1C447.178 5.1 448.978 6.46666 450.311 8.2C451.644 9.93333 452.611 12.1 453.211 14.7C453.744 17.0333 454.078 19.8 454.211 23C454.411 26.1333 454.511 30.3333 454.511 35.6C454.511 40.9333 454.411 45.1667 454.211 48.3C454.078 51.4333 453.744 54.1667 453.211 56.5C452.611 59.1 451.644 61.2667 450.311 63C448.978 64.7333 447.178 66.1 444.911 67.1C442.578 68.1 439.611 68.8333 436.011 69.3C432.478 69.7667 428.044 70 422.711 70H421.911V54.7ZM465.68 1.2H485.68V70H465.68V1.2ZM489.88 1.2H515.28V16.5H489.88V1.2ZM489.88 27.6H510.58V42.9H489.88V27.6ZM489.88 54.7H515.28V70H489.88V54.7ZM574.701 17C572.501 16.7333 568.634 16.3667 563.101 15.9C560.034 15.7667 557.567 15.7 555.701 15.7C553.301 15.7 551.034 15.7667 548.901 15.9V0.399996H551.401C556.867 0.399996 562.534 0.766662 568.401 1.49999C570.267 1.76666 572.367 2.13333 574.701 2.6V17ZM558.201 49.7C558.201 48.3 558.101 47.3 557.901 46.7C557.701 46.0333 557.367 45.6 556.901 45.4C556.434 45.1333 555.634 44.9333 554.501 44.8L542.201 43.3C534.934 42.5 530.034 40.1333 527.501 36.2C526.367 34.5333 525.601 32.5 525.201 30.1C524.801 27.7 524.601 24.7667 524.601 21.3C524.601 13.9 526.501 8.56666 530.301 5.3C533.367 2.63333 538.167 1.06666 544.701 0.599999V20.7C544.701 21.5667 544.734 22.3 544.801 22.9C544.867 23.5 545.001 23.9667 545.201 24.3C545.401 24.7 545.734 25 546.201 25.2C546.667 25.3333 547.367 25.4333 548.301 25.5L562.101 27.2C564.967 27.6 567.301 28.1 569.101 28.7C570.901 29.3 572.434 30.2333 573.701 31.5C576.701 34.6333 578.201 40.2 578.201 48.2C578.201 56.6667 576.334 62.6 572.601 66C570.934 67.5333 568.901 68.6667 566.501 69.4C564.167 70.0667 561.401 70.5 558.201 70.7V49.7ZM552.901 70.8C546.234 70.8 540.034 70.5 534.301 69.9C530.901 69.5667 528.334 69.2333 526.601 68.9V54.3C530.534 54.6333 535.034 54.9667 540.101 55.3C543.301 55.4333 545.567 55.5 546.901 55.5C550.501 55.5 552.867 55.4 554.001 55.2V70.8H552.901Z" fill="#1B1C21"/>
</svg>
